<?xml version="1.0" encoding="UTF-8"?>
<svg width="1050px" height="1052px" viewBox="0 0 1050 1052" version="1.1" xmlns="http://www.w3.org/2000/svg" xmlns:xlink="http://www.w3.org/1999/xlink">
    <!-- Generator: Sketch 56.3 (81716) - https://sketch.com -->
    <title>Group 2</title>
    <desc>Created with Sketch.</desc>
    <defs>
        <path d="M406.5,794.112392 C525.78357,794.112392 630.262945,730.728103 688.094648,635.803005 C700.220725,623.924467 728.364197,610.059158 759.221648,614.498816 C780.806442,570.656543 736,516.782312 736,464.612392 C736,282.634567 581.586595,0.273775216 399.608769,0.273775216 C242.884036,0.273775216 64.9678428,161.572276 33,335.943406 C29.2836951,356.214285 -6.3725075,400.549232 1.1767671,444 C2.98459399,454.405168 84.9140341,395.702029 81,416.077445 C79,426.488911 77,447.13761 77,464.612392 C77,646.590049 224.522175,794.112392 406.5,794.112392 Z" id="path-1"></path>
        <path d="M96.0446606,16.2039157 C78.0353827,16.2039157 54.0241626,0 36.0148847,0 C18.0056068,0 6,8.10238734 6,8.10238734 L6,89.1245465 C6,89.1245465 18.00561,81.0221608 36.0148847,81.0221608 C54.0241593,81.0221608 78.0353827,97.2260731 96.0446606,97.2260731 C114.053939,97.2260731 126.059545,89.1245465 126.059545,89.1245465 L126.059545,8.10238734 C126.059545,8.10238734 114.053939,16.2039157 96.0446606,16.2039157 Z" id="path-3"></path>
        <filter x="-1.7%" y="-2.1%" width="106.7%" height="107.2%" filterUnits="objectBoundingBox" id="filter-4">
            <feOffset dx="4" dy="3" in="SourceAlpha" result="shadowOffsetOuter1"></feOffset>
            <feColorMatrix values="0 0 0 0 0.119167508   0 0 0 0 0.131581082   0 0 0 0 0.167862457  0 0 0 0.595088505 0" type="matrix" in="shadowOffsetOuter1"></feColorMatrix>
        </filter>
    </defs>
    <g id="Okteto" stroke="none" stroke-width="1" fill="none" fill-rule="evenodd">
        <g id="okteto-bangalore-logo" transform="translate(-950.000000, -948.000000)">
            <g id="Group-2" transform="translate(950.000000, 948.000000)">
                <g id="Group">
                    <g id="Bangalore-Okteto-Logo">
                        <g id="Logo" fill="#1E222B" fill-rule="nonzero">
                            <path d="M215.361204,102.913078 C448.851957,-70.3016432 776.739295,-19.3051591 955.393274,214.093844 C989.79268,259.034276 982.311563,326.075292 934.048737,356.108004 C885.785912,386.140716 823.750716,377.154996 790.072453,333.156684 C704.066706,220.796149 557.713927,174.822015 424.407063,219.006428 C291.189026,263.161398 203.077446,387.430542 206.006567,527.142647 C208.938771,667.001604 296.243401,790.607236 431.534001,833.467743 C566.683685,876.283609 709.830738,830.320157 791.187961,717.101874 C827.475844,666.602954 881.03491,657.062978 931.983915,686.203603 C982.93292,715.344228 987.376854,789.110406 955.877583,834.787688 C858.349752,970.515667 706.738498,1051.18102 537.18053,1052 C367.71896,1052.8058 208.86632,975.81766 105.891832,841.226942 C-72.7608285,607.828025 -18.1290553,276.127434 215.361204,102.913078 Z M905.377051,433.839089 C937.470237,418.374542 975.57404,421.345497 1005.34124,441.564994 C1035.05935,461.751139 1052.01297,496.100188 1049.80852,531.733001 C1047.59666,567.485614 1026.43024,599.091721 994.282233,614.582685 C962.189041,630.047225 924.08524,627.07627 894.318044,606.856777 C864.599933,586.670622 847.646317,552.321584 849.850763,516.688764 C852.06262,480.936148 873.22904,449.330044 905.377051,433.839089 Z" id="Combined-Shape" transform="translate(525.000000, 526.003131) rotate(-360.000000) translate(-525.000000, -526.003131) "></path>
                        </g>
                        <g id="Bangalore" transform="translate(128.000000, 56.000000)">
                            <g id="Building">
                                <mask id="mask-2" fill="white">
                                    <use xlink:href="#path-1"></use>
                                </mask>
                                <g id="Oval"></g>
                                <path d="M659.824906,659.77956 L668.414717,659.77956 L664.877736,655.500125 L618.35283,655.500125 L614.815849,659.77956 L659.824906,659.77956 Z M629.235849,719.668834 L653.994717,719.668834 L653.994717,673.466451 L629.235849,673.466451 L629.235849,719.668834 Z M635.804528,804.158015 L647.464906,804.158015 L647.464906,785.908826 L635.804528,785.908826 L635.804528,804.158015 Z M641.634717,608.713769 C638.058868,608.713769 635.143774,612.126367 635.143774,616.319118 C635.143774,620.511869 638.058868,623.924467 641.634717,623.924467 C645.171698,623.924467 648.086792,620.511869 648.086792,616.319118 C648.086792,612.126367 645.171698,608.713769 641.634717,608.713769 Z M170.59434,659.77956 L179.184151,659.77956 L175.64717,655.500125 L129.083396,655.500125 L125.546415,659.77956 L170.59434,659.77956 Z M139.966415,719.668834 L164.764151,719.668834 L164.764151,673.466451 L139.966415,673.466451 L139.966415,719.668834 Z M146.535094,804.158015 L158.195472,804.158015 L158.195472,785.908826 L146.535094,785.908826 L146.535094,804.158015 Z M152.365283,608.713769 C148.789434,608.713769 145.87434,612.126367 145.87434,616.319118 C145.87434,620.511869 148.789434,623.924467 152.365283,623.924467 C155.941132,623.924467 158.856226,620.511869 158.856226,616.319118 C158.856226,612.126367 155.941132,608.713769 152.365283,608.713769 Z M631.490189,574.350547 L598.180377,533.458678 L706,533.458678 L706,834 L584.187925,834 L584.187925,807.509613 C584.187925,803.732031 581.583774,800.666167 578.357736,800.666167 L548.740377,800.666167 C545.51434,800.666167 542.910189,803.732031 542.910189,807.509613 L542.910189,834 L519.900377,834 L519.900377,807.509613 C519.900377,803.732031 517.296226,800.666167 514.070189,800.666167 L484.45283,800.666167 C481.226792,800.666167 478.622642,803.732031 478.622642,807.509613 L478.622642,834 L455.61283,834 L455.61283,807.509613 C455.61283,803.732031 453.008679,800.666167 449.782642,800.666167 L420.165283,800.666167 C416.939245,800.666167 414.335094,803.732031 414.335094,807.509613 L414.335094,834 L379.664906,834 L379.664906,807.509613 C379.664906,803.732031 377.060755,800.666167 373.834717,800.666167 L344.178491,800.666167 C340.952453,800.666167 338.348302,803.732031 338.348302,807.509613 L338.348302,834 L315.377358,834 L315.377358,807.509613 C315.377358,803.732031 312.773208,800.666167 309.54717,800.666167 L279.890943,800.666167 C276.664906,800.666167 274.060755,803.732031 274.060755,807.509613 L274.060755,834 L251.089811,834 L251.089811,807.509613 C251.089811,803.732031 248.48566,800.666167 245.259623,800.666167 L215.603396,800.666167 C212.377358,800.666167 209.773208,803.732031 209.773208,807.509613 L209.773208,834 L88,834 L88,533.458678 L195.819623,533.458678 L162.470943,574.350547 C160.877358,576.335146 160.410943,579.250454 161.343774,581.773404 C162.237736,584.291792 164.375472,585.925094 166.707547,585.925094 L209.773208,585.925094 L209.773208,626.415481 C209.773208,630.193063 212.377358,633.258927 215.603396,633.258927 L245.259623,633.258927 C248.48566,633.258927 251.089811,630.193063 251.089811,626.415481 L251.089811,585.925094 L274.060755,585.925094 L274.060755,626.415481 C274.060755,630.193063 276.664906,633.258927 279.890943,633.258927 L309.54717,633.258927 C312.773208,633.258927 315.377358,630.193063 315.377358,626.415481 L315.377358,585.925094 L338.348302,585.925094 L338.348302,626.415481 C338.348302,630.193063 340.952453,633.258927 344.178491,633.258927 L373.834717,633.258927 C377.060755,633.258927 379.664906,630.193063 379.664906,626.415481 L379.664906,585.925094 L414.335094,585.925094 L414.335094,626.415481 C414.335094,630.193063 416.939245,633.258927 420.165283,633.258927 L449.782642,633.258927 C453.008679,633.258927 455.61283,630.193063 455.61283,626.415481 L455.61283,585.925094 L478.622642,585.925094 L478.622642,626.415481 C478.622642,630.193063 481.226792,633.258927 484.45283,633.258927 L514.070189,633.258927 C517.296226,633.258927 519.900377,630.193063 519.900377,626.415481 L519.900377,585.925094 L542.910189,585.925094 L542.910189,626.415481 C542.910189,630.193063 545.51434,633.258927 548.740377,633.258927 L578.357736,633.258927 C581.583774,633.258927 584.187925,630.193063 584.187925,626.415481 L584.187925,585.925094 L627.292453,585.925094 C629.624528,585.925094 631.723396,584.291792 632.656226,581.773404 C633.550189,579.250454 633.122642,576.335146 631.490189,574.350547 Z M152,393.27686 C155.28,397.964073 159,404.62557 159,410.498266 C159,418.39996 155.12,426.43388 152.84,430.446281 L151.16,430.446281 C148.88,426.424761 145,418.358924 145,410.498266 C145,404.602773 148.68,397.977752 152,393.27686 Z M149.805914,461.243802 L189.55345,461.243802 L204,481.62903 L204,501.599174 L101,501.599174 L101,481.62903 L115.44655,461.243802 L149.805914,461.243802 Z M604.452029,461.243802 L678.547971,461.243802 L693,481.62903 L693,501.599174 L590,501.599174 L590,481.62903 L604.452029,461.243802 Z M640.96,393.27686 C644.28,397.964073 648,404.62557 648,410.498266 C648,418.39996 644.08,426.43388 641.84,430.446281 L640.12,430.446281 C637.88,426.424761 634,418.358924 634,410.498266 C634,404.602773 637.64,397.977752 640.96,393.27686 Z M641.019011,324.247934 C643.756654,324.247934 646,326.869111 646,330.091068 C646,333.308575 643.756654,335.929752 641.019011,335.929752 C638.243346,335.929752 636,333.308575 636,330.091068 C636,326.869111 638.243346,324.247934 641.019011,324.247934 Z M519.381625,519.652893 L519.381625,493.573764 C519.381625,489.763368 516.777385,486.670872 513.551237,486.670872 C510.325088,486.670872 507.720848,489.763368 507.720848,493.573764 L507.720848,519.652893 L500.102473,519.652893 L500.102473,493.573764 C500.102473,489.763368 497.498233,486.670872 494.272085,486.670872 C491.084806,486.670872 488.441696,489.763368 488.441696,493.573764 L488.441696,519.652893 L480.862191,519.652893 L480.862191,493.573764 C480.862191,489.763368 478.257951,486.670872 475.031802,486.670872 C471.805654,486.670872 469.201413,489.763368 469.201413,493.573764 L469.201413,519.652893 L461.583039,519.652893 L461.583039,493.573764 C461.583039,489.763368 458.978799,486.670872 455.75265,486.670872 C452.526502,486.670872 449.922261,489.763368 449.922261,493.573764 L449.922261,519.652893 L440.243816,519.652893 C440.282686,510.646919 440.321555,495.368517 440.204947,488.792361 C440.127208,486.288912 440.010601,482.349661 439,478.235537 L527,478.235537 L527,519.652893 L519.381625,519.652893 Z M272,446.820177 L278.984572,438.954688 C280.109864,437.668852 280.730715,435.886007 280.730715,434.030208 L280.730715,416.174409 C280.730715,414.364206 280.148668,412.6224 279.023375,411.341123 L272,403.0835 L272,396.46281 L521,396.46281 L521,403.0835 L513.976625,411.341123 C512.890136,412.6224 512.269285,414.364206 512.269285,416.174409 L512.269285,434.030208 C512.269285,435.886007 512.928939,437.668852 514.054231,438.954688 L521,446.820177 L521,464.429752 L428.415615,464.429752 C425.621786,463.139356 422.478728,462.414363 418.792426,462.414363 L418.753623,462.414363 C417.356709,450.828156 412.700327,443.646623 409.751286,440.121972 C405.676952,435.284127 400.826554,432.511827 396.519402,432.511827 C392.173446,432.511827 387.361851,435.284127 383.287518,440.121972 C380.299673,443.646623 375.643291,450.828156 374.28518,462.414363 C370.637681,462.418923 367.417017,463.139356 364.661992,464.429752 L272,464.429752 L272,446.820177 Z M266,478.235537 L354,478.235537 C352.950993,482.349661 352.834437,486.293514 352.795585,488.796963 C352.640177,495.368517 352.679029,510.646919 352.756733,519.652893 L343.082561,519.652893 L343.082561,493.573764 C343.082561,489.763368 340.47947,486.670872 337.254746,486.670872 C334.030022,486.670872 331.426932,489.763368 331.426932,493.573764 L331.426932,519.652893 L323.811921,519.652893 L323.811921,493.573764 C323.811921,489.763368 321.20883,486.670872 317.984106,486.670872 C314.759382,486.670872 312.156291,489.763368 312.156291,493.573764 L312.156291,519.652893 L304.54128,519.652893 L304.54128,493.573764 C304.54128,489.763368 301.93819,486.670872 298.713466,486.670872 C295.488742,486.670872 292.885651,489.763368 292.885651,493.573764 L292.885651,519.652893 L285.27064,519.652893 L285.27064,493.573764 C285.27064,489.763368 282.66755,486.670872 279.442826,486.670872 C276.218102,486.670872 273.615011,489.763368 273.615011,493.573764 L273.615011,519.652893 L266,519.652893 L266,478.235537 Z M152,324.247934 C154.748092,324.247934 157,326.869111 157,330.091068 C157,333.308575 154.748092,335.929752 152,335.929752 C149.251908,335.929752 147,333.308575 147,330.091068 C147,326.869111 149.251908,324.247934 152,324.247934 Z M292.17694,264.887194 C305.608307,235.279095 355.596351,195.408993 364.706322,188.31405 L429.33261,188.31405 C438.403649,195.408993 488.391693,235.279095 501.82306,264.887194 C514.04755,291.800314 505.482621,308.456016 498.747471,318.938017 L437.975402,318.938017 C439.883046,312.305986 439.921977,305.252291 437.741813,299.284839 C435.561649,293.381552 431.551705,289.252001 426.295953,287.386599 C424.466172,268.833413 402.820259,252.631458 400.056123,250.63314 C399.939328,250.555224 399.861465,250.509391 399.744671,250.445225 C399.550013,250.339809 399.394287,250.238977 399.238561,250.147311 C399.043904,250.060228 398.849246,249.982312 398.654589,249.918146 C398.459931,249.863146 398.304205,249.808147 398.148479,249.77148 C397.953822,249.725647 397.720233,249.688981 397.525575,249.666064 C397.369849,249.652314 397.214123,249.638565 397.058397,249.633981 C396.824808,249.633981 396.630151,249.652314 396.396562,249.675231 C396.240836,249.698147 396.08511,249.721064 395.929384,249.75773 C395.695795,249.803563 395.501137,249.872313 395.30648,249.941062 C395.150754,249.996062 394.995028,250.055645 394.839302,250.124394 C394.644644,250.22981 394.411055,250.348976 394.216398,250.481891 C394.138535,250.536891 394.02174,250.568974 393.943877,250.63314 C391.179741,252.631458 369.533828,268.833413 367.742979,287.386599 C362.487227,289.252001 358.438351,293.381552 356.297118,299.284839 C354.116954,305.252291 354.116954,312.305986 356.024598,318.938017 L295.252529,318.938017 C288.517379,308.456016 279.95245,291.800314 292.17694,264.887194 Z" id="Combined-Shape" fill="#FFFFFF" mask="url(#mask-2)"></path>
                                <path d="M170.615851,659.721484 L179.205086,659.721484 L175.668342,655.436278 L129.10769,655.436278 L125.570946,659.721484 L170.615851,659.721484 Z M139.989979,719.691526 L164.786053,719.691526 L164.786053,673.426834 L139.989979,673.426834 L139.989979,719.691526 Z M182.314312,643.81871 L197.160864,661.809266 C198.754342,663.782836 199.220726,666.711213 198.326823,669.246702 C197.394056,671.777623 195.295329,673.426834 192.963409,673.426834 L176.445649,673.426834 L176.445649,726.544201 C176.445649,730.326878 173.841672,733.396876 170.615851,733.396876 L134.160181,733.396876 C130.93436,733.396876 128.330383,730.326878 128.330383,726.544201 L128.330383,673.426834 L111.812623,673.426834 C109.480703,673.426834 107.381976,671.777623 106.449209,669.246702 C105.555306,666.711213 106.02169,663.782836 107.615168,661.809266 L122.46172,643.81871 C123.549949,642.484723 125.065697,641.730928 126.659175,641.730928 L178.155723,641.730928 C179.710336,641.730928 181.226083,642.484723 182.314312,643.81871 Z M177.805935,737.672945 C181.031756,737.672945 183.635733,740.742943 183.635733,744.52562 C183.635733,748.308296 181.031756,751.378295 177.805935,751.378295 L126.970097,751.378295 C123.744276,751.378295 121.140299,748.308296 121.140299,744.52562 C121.140299,740.742943 123.744276,737.672945 126.970097,737.672945 L177.805935,737.672945 Z M152.388016,608.586824 C148.812407,608.586824 145.897508,612.004025 145.897508,616.20243 C145.897508,620.400836 148.812407,623.818036 152.388016,623.818036 C155.963625,623.818036 158.878524,620.400836 158.878524,616.20243 C158.878524,612.004025 155.963625,608.586824 152.388016,608.586824 Z M152.388016,637.523386 C142.399629,637.523386 134.237912,627.957052 134.237912,616.20243 C134.237912,604.447809 142.399629,594.881474 152.388016,594.881474 C162.376403,594.881474 170.53812,604.447809 170.53812,616.20243 C170.53812,627.957052 162.376403,637.523386 152.388016,637.523386 Z M146.558218,804.29465 L158.217814,804.29465 L158.217814,786.020851 L146.558218,786.020851 L146.558218,804.29465 Z M164.047612,772.315501 C167.273433,772.315501 169.87741,775.385499 169.87741,779.168176 L169.87741,811.147325 C169.87741,814.930002 167.273433,818 164.047612,818 L140.72842,818 C137.502599,818 134.898622,814.930002 134.898622,811.147325 L134.898622,779.168176 C134.898622,775.385499 137.502599,772.315501 140.72842,772.315501 L164.047612,772.315501 Z M245.276129,638.304591 C248.501951,638.304591 251.105927,641.374589 251.105927,645.157266 C251.105927,648.939942 248.501951,652.009941 245.276129,652.009941 L215.621891,652.009941 C212.396069,652.009941 209.792093,648.939942 209.792093,645.157266 C209.792093,641.374589 212.396069,638.304591 215.621891,638.304591 L245.276129,638.304591 Z M309.559367,638.304591 C312.785189,638.304591 315.389165,641.374589 315.389165,645.157266 C315.389165,648.939942 312.785189,652.009941 309.559367,652.009941 L279.905129,652.009941 C276.679307,652.009941 274.075331,648.939942 274.075331,645.157266 C274.075331,641.374589 276.679307,638.304591 279.905129,638.304591 L309.559367,638.304591 Z M373.842606,638.304591 C377.068427,638.304591 379.672404,641.374589 379.672404,645.157266 C379.672404,648.939942 377.068427,652.009941 373.842606,652.009941 L344.188367,652.009941 C340.962546,652.009941 338.358569,648.939942 338.358569,645.157266 C338.358569,641.374589 340.962546,638.304591 344.188367,638.304591 L373.842606,638.304591 Z M358.996054,656.578391 C362.221875,656.578391 364.825852,659.959676 364.825852,664.125902 L364.825852,788.030879 C364.825852,792.197106 362.221875,795.578391 358.996054,795.578391 C355.809098,795.578391 353.166256,792.197106 353.166256,788.030879 L353.166256,664.125902 C353.166256,659.959676 355.809098,656.578391 358.996054,656.578391 Z M294.751681,656.578391 C297.938637,656.578391 300.581479,659.959676 300.581479,664.125902 L300.581479,788.030879 C300.581479,792.197106 297.938637,795.578391 294.751681,795.578391 C291.525859,795.578391 288.921883,792.197106 288.921883,788.030879 L288.921883,664.125902 C288.921883,659.959676 291.525859,656.578391 294.751681,656.578391 Z M230.468443,656.578391 C233.655399,656.578391 236.29824,659.959676 236.29824,664.125902 L236.29824,788.030879 C236.29824,792.197106 233.655399,795.578391 230.468443,795.578391 C227.242621,795.578391 224.638645,792.197106 224.638645,788.030879 L224.638645,664.125902 C224.638645,659.959676 227.242621,656.578391 230.468443,656.578391 Z M292.342031,264.637367 C280.138321,291.463305 288.688691,308.065052 295.412391,318.513097 L356.081155,318.513097 C354.176754,311.90255 354.176754,304.871705 356.353212,298.923583 C358.490805,293.03942 362.532798,288.923246 367.779616,287.063887 C369.567421,268.570802 391.176538,252.421332 393.935976,250.429487 C394.013706,250.365529 394.130302,250.33355 394.208033,250.278729 C394.40236,250.146244 394.635552,250.027464 394.829878,249.92239 C394.985339,249.853863 395.140801,249.794473 395.296262,249.739652 C395.490589,249.671125 395.684915,249.602598 395.918107,249.556914 C396.073568,249.520366 396.22903,249.497524 396.384491,249.474681 C396.617683,249.451839 396.812009,249.433565 397.045201,249.433565 C397.200663,249.438134 397.356124,249.451839 397.511585,249.465545 C397.705912,249.488387 397.939104,249.524934 398.13343,249.570619 C398.288892,249.607166 398.444353,249.661988 398.638679,249.716809 C398.833006,249.780768 399.027333,249.858431 399.221659,249.945232 C399.37712,250.036601 399.532582,250.137107 399.726908,250.242181 C399.843504,250.306139 399.921235,250.351824 400.037831,250.429487 C402.797269,252.421332 424.406386,268.570802 426.233056,287.063887 C431.479874,288.923246 435.483002,293.03942 437.65946,298.923583 C439.835918,304.871705 439.797053,311.90255 437.892652,318.513097 L498.561415,318.513097 C505.285116,308.065052 513.835486,291.463305 501.631776,264.637367 C488.223241,235.12518 438.32017,195.384234 429.264551,188.312274 L364.748121,188.312274 C355.653636,195.384234 305.750566,235.12518 292.342031,264.637367 Z M368.828979,174.606924 L425.183693,174.606924 L425.183693,159.188406 L368.828979,159.188406 L368.828979,174.606924 Z M381.071555,145.483056 L412.941117,145.483056 L412.941117,138.059325 L381.071555,138.059325 L381.071555,145.483056 Z M368.673518,72.5751637 C366.535926,83.5988334 372.870973,94.3438276 379.827865,103.375653 C380.061057,90.7393206 380.993824,80.8075105 382.27638,73.0548509 C379.516942,70.3000756 375.164027,69.2401953 372.054801,69.9345997 C370.927707,70.181296 369.023306,70.8528581 368.673518,72.5751637 Z M421.957871,69.9345997 C418.80978,69.2447637 414.49573,70.3046441 411.736292,73.0548509 C413.018848,80.8075105 413.91275,90.7393206 414.184807,103.375653 C421.141699,94.3438276 427.437881,83.5988334 425.339154,72.5751637 C424.989366,70.8528581 423.084965,70.181296 421.957871,69.9345997 Z M391.681787,124.353975 L402.330885,124.353975 C403.61344,86.73279 399.804639,69.9026205 397.006336,62.7575648 C394.169168,69.9026205 390.360366,86.73279 391.681787,124.353975 Z M367.041175,304.346333 C365.603158,308.325453 366.41933,313.926373 368.945575,318.513097 L425.028231,318.513097 C427.593342,313.926373 428.370649,308.325453 426.932632,304.346333 C425.844403,301.326588 423.551349,299.796157 419.97574,299.663672 C418.2268,299.595146 416.555592,298.594655 415.506228,296.927171 C414.456864,295.268823 414.068211,293.12622 414.534595,291.116102 C416.128073,283.642118 405.906494,271.741306 397.006336,264.472903 C388.106178,271.75958 377.845734,283.674098 379.478077,291.116102 C379.905595,293.12622 379.555808,295.268823 378.506444,296.927171 C377.418215,298.594655 375.785872,299.595146 373.998067,299.663672 C370.422458,299.796157 368.168269,301.326588 367.041175,304.346333 Z M397.006336,346.494852 L495.607651,346.494852 L495.607651,332.218446 L298.366155,332.218446 L298.366155,346.494852 L397.006336,346.494852 Z M286.70656,346.494852 L286.70656,327.704818 C279.438745,316.544095 266.146806,293.153631 282.042721,258.177579 C296.461755,226.509084 345.082269,187.193004 357.169384,177.768292 L357.169384,152.335731 C357.169384,148.553054 359.77336,145.483056 362.999182,145.483056 L369.411959,145.483056 L369.411959,131.20665 C369.411959,127.423973 372.015936,124.353975 375.241757,124.353975 L380.022191,124.353975 C379.983326,123.983931 379.983326,123.636728 379.983326,123.271252 C379.400346,122.595122 378.895097,121.969244 378.273252,121.247429 C368.246,109.401439 353.04966,91.4976833 357.324845,69.541713 C358.6074,62.8078178 363.310104,57.9241448 369.878343,56.4668093 C374.619912,55.4069289 380.527441,56.2383868 385.579932,59.2718375 C389.00008,49.2623638 392.964343,46.279166 394.946474,45.4111605 C395.06307,45.365476 395.179666,45.3517706 395.257397,45.315223 C395.490589,45.2421278 395.684915,45.1736011 395.879242,45.1233481 C396.073568,45.0868005 396.22903,45.0593898 396.423356,45.041116 C396.617683,45.0137053 396.812009,45 397.006336,45 C397.200663,45 397.356124,45.0137053 397.55045,45.0365476 C397.744777,45.0593898 397.939104,45.0868005 398.13343,45.1279166 C398.327757,45.1781695 398.522083,45.2421278 398.71641,45.3106546 C398.833006,45.3517706 398.910737,45.365476 399.027333,45.4111605 C401.009464,46.279166 405.012592,49.2669322 408.393875,59.276406 C413.446366,56.2429552 419.353895,55.4114974 424.095464,56.4668093 C430.702568,57.9241448 435.405272,62.8078178 436.687827,69.541713 C440.924147,91.4976833 425.766672,109.401439 415.700555,121.247429 C415.117575,121.969244 414.57346,122.595122 414.029346,123.271252 C413.990481,123.636728 413.990481,123.983931 413.990481,124.353975 L418.770915,124.353975 C421.957871,124.353975 424.600713,127.423973 424.600713,131.20665 L424.600713,145.483056 L431.01349,145.483056 C434.239312,145.483056 436.843288,148.553054 436.843288,152.335731 L436.843288,177.768292 C448.891537,187.193004 497.550917,226.509084 511.931085,258.177579 C527.827001,293.153631 514.535062,316.544095 507.267247,327.704818 L507.267247,346.494852 L533.345876,346.494852 C536.571698,346.494852 539.175674,349.564851 539.175674,353.347527 L539.175674,366.481821 C539.175674,370.264497 536.571698,373.334496 533.345876,373.334496 C530.120055,373.334496 527.516078,370.264497 527.516078,366.481821 L527.516078,360.200202 L517.95521,360.200202 L517.95521,366.481821 C517.95521,370.264497 515.351233,373.334496 512.125412,373.334496 C508.89959,373.334496 506.295614,370.264497 506.295614,366.481821 L506.295614,360.200202 L496.734745,360.200202 L496.734745,366.481821 C496.734745,370.264497 494.130769,373.334496 490.904948,373.334496 C487.717991,373.334496 485.07515,370.264497 485.07515,366.481821 L485.07515,360.200202 L475.553146,360.200202 L475.553146,366.481821 C475.553146,370.264497 472.94917,373.334496 469.723349,373.334496 C466.497527,373.334496 463.893551,370.264497 463.893551,366.481821 L463.893551,360.200202 L454.332682,360.200202 L454.332682,366.481821 C454.332682,370.264497 451.728706,373.334496 448.502884,373.334496 C445.277063,373.334496 442.673086,370.264497 442.673086,366.481821 L442.673086,360.200202 L433.112218,360.200202 L433.112218,366.481821 C433.112218,370.264497 430.508241,373.334496 427.28242,373.334496 C424.056598,373.334496 421.452622,370.264497 421.452622,366.481821 L421.452622,360.200202 L411.891753,360.200202 L411.891753,366.481821 C411.891753,370.264497 409.287777,373.334496 406.061955,373.334496 C402.836134,373.334496 400.232158,370.264497 400.232158,366.481821 L400.232158,360.200202 L393.741649,360.200202 L393.741649,366.481821 C393.741649,370.264497 391.137673,373.334496 387.911851,373.334496 C384.68603,373.334496 382.082053,370.264497 382.082053,366.481821 L382.082053,360.200202 L372.56005,360.200202 L372.56005,366.481821 C372.56005,370.264497 369.917208,373.334496 366.730252,373.334496 C363.504431,373.334496 360.900454,370.264497 360.900454,366.481821 L360.900454,360.200202 L351.339586,360.200202 L351.339586,366.481821 C351.339586,370.264497 348.735609,373.334496 345.509788,373.334496 C342.283966,373.334496 339.67999,370.264497 339.67999,366.481821 L339.67999,360.200202 L330.119121,360.200202 L330.119121,366.481821 C330.119121,370.264497 327.515145,373.334496 324.289324,373.334496 C321.063502,373.334496 318.459526,370.264497 318.459526,366.481821 L318.459526,360.200202 L308.898657,360.200202 L308.898657,366.481821 C308.898657,370.264497 306.294681,373.334496 303.068859,373.334496 C299.843038,373.334496 297.239061,370.264497 297.239061,366.481821 L297.239061,360.200202 L287.678193,360.200202 L287.678193,366.481821 C287.678193,370.264497 285.074216,373.334496 281.848395,373.334496 C278.622573,373.334496 276.018597,370.264497 276.018597,366.481821 L276.018597,360.200202 L266.457728,360.200202 L266.457728,366.481821 C266.457728,370.264497 263.853752,373.334496 260.62793,373.334496 C257.440974,373.334496 254.798133,370.264497 254.798133,366.481821 L254.798133,353.347527 C254.798133,349.564851 257.440974,346.494852 260.62793,346.494852 L286.70656,346.494852 Z M309.559367,417.876882 C312.785189,417.876882 315.389165,420.946881 315.389165,424.729557 C315.389165,428.512234 312.785189,431.582232 309.559367,431.582232 L294.751681,431.582232 C291.525859,431.582232 288.921883,428.512234 288.921883,424.729557 C288.921883,420.946881 291.525859,417.876882 294.751681,417.876882 L309.559367,417.876882 Z M346.092768,417.876882 C349.318589,417.876882 351.922566,420.946881 351.922566,424.729557 C351.922566,428.512234 349.318589,431.582232 346.092768,431.582232 L331.285081,431.582232 C328.059259,431.582232 325.455283,428.512234 325.455283,424.729557 C325.455283,420.946881 328.059259,417.876882 331.285081,417.876882 L346.092768,417.876882 Z M367.818481,431.582232 C364.59266,431.582232 361.988683,428.512234 361.988683,424.729557 C361.988683,420.946881 364.59266,417.876882 367.818481,417.876882 L382.665033,417.876882 C385.851989,417.876882 388.494831,420.946881 388.494831,424.729557 C388.494831,428.512234 385.851989,431.582232 382.665033,431.582232 L367.818481,431.582232 Z M668.402861,659.721484 L664.866117,655.436278 L618.34433,655.436278 L614.807586,659.721484 L668.402861,659.721484 Z M629.226619,719.691526 L653.983828,719.691526 L653.983828,673.426834 L629.226619,673.426834 L629.226619,719.691526 Z M629.96506,641.730928 L667.353497,641.730928 C668.946976,641.730928 670.462723,642.484723 671.550952,643.81871 L686.358639,661.809266 C687.990982,663.782836 688.457366,666.711213 687.524598,669.246702 C686.630696,671.777623 684.493103,673.426834 682.161184,673.426834 L665.643423,673.426834 L665.643423,726.544201 C665.643423,730.326878 663.039447,733.396876 659.813625,733.396876 L623.396821,733.396876 C620.171,733.396876 617.567023,730.326878 617.567023,726.544201 L617.567023,673.426834 L601.049263,673.426834 C598.717343,673.426834 596.579751,671.777623 595.685849,669.246702 C594.753081,666.711213 595.219465,663.782836 596.851808,661.809266 L611.659495,643.81871 C612.786589,642.484723 614.263471,641.730928 615.856949,641.730928 L629.96506,641.730928 Z M667.042575,737.672945 C670.268396,737.672945 672.872373,740.742943 672.872373,744.52562 C672.872373,748.308296 670.268396,751.378295 667.042575,751.378295 L616.167872,751.378295 C612.980916,751.378295 610.338074,748.308296 610.338074,744.52562 C610.338074,740.742943 612.980916,737.672945 616.167872,737.672945 L667.042575,737.672945 Z M641.624656,608.586824 C638.049047,608.586824 635.134148,612.004025 635.134148,616.20243 C635.134148,620.400836 638.049047,623.818036 641.624656,623.818036 C645.1614,623.818036 648.076299,620.400836 648.076299,616.20243 C648.076299,612.004025 645.1614,608.586824 641.624656,608.586824 Z M623.474552,616.20243 C623.474552,604.447809 631.597404,594.881474 641.624656,594.881474 C651.613043,594.881474 659.735895,604.447809 659.735895,616.20243 C659.735895,627.957052 651.613043,637.523386 641.624656,637.523386 C631.597404,637.523386 623.474552,627.957052 623.474552,616.20243 Z M635.794858,804.29465 L647.454454,804.29465 L647.454454,786.020851 L635.794858,786.020851 L635.794858,804.29465 Z M653.284252,772.315501 C656.471208,772.315501 659.11405,775.385499 659.11405,779.168176 L659.11405,811.147325 C659.11405,814.930002 656.471208,818 653.284252,818 L629.96506,818 C626.739239,818 624.135262,814.930002 624.135262,811.147325 L624.135262,779.168176 C624.135262,775.385499 626.739239,772.315501 629.96506,772.315501 L653.284252,772.315501 Z M578.351916,638.304591 C581.577738,638.304591 584.181714,641.374589 584.181714,645.157266 C584.181714,648.939942 581.577738,652.009941 578.351916,652.009941 L548.736543,652.009941 C545.510721,652.009941 542.906745,648.939942 542.906745,645.157266 C542.906745,641.374589 545.510721,638.304591 548.736543,638.304591 L578.351916,638.304591 Z M514.068678,638.304591 C517.294499,638.304591 519.898476,641.374589 519.898476,645.157266 C519.898476,648.939942 517.294499,652.009941 514.068678,652.009941 L484.453305,652.009941 C481.227483,652.009941 478.623507,648.939942 478.623507,645.157266 C478.623507,641.374589 481.227483,638.304591 484.453305,638.304591 L514.068678,638.304591 Z M449.78544,638.304591 C453.011261,638.304591 455.615238,641.374589 455.615238,645.157266 C455.615238,648.939942 453.011261,652.009941 449.78544,652.009941 L420.170066,652.009941 C416.944245,652.009941 414.340268,648.939942 414.340268,645.157266 C414.340268,641.374589 416.944245,638.304591 420.170066,638.304591 L449.78544,638.304591 Z M434.977753,656.578391 C438.203575,656.578391 440.807551,659.959676 440.807551,664.125902 L440.807551,788.030879 C440.807551,792.197106 438.203575,795.578391 434.977753,795.578391 C431.751932,795.578391 429.147955,792.197106 429.147955,788.030879 L429.147955,664.125902 C429.147955,659.959676 431.751932,656.578391 434.977753,656.578391 Z M499.260991,656.578391 C502.486813,656.578391 505.090789,659.959676 505.090789,664.125902 L505.090789,788.030879 C505.090789,792.197106 502.486813,795.578391 499.260991,795.578391 C496.03517,795.578391 493.431193,792.197106 493.431193,788.030879 L493.431193,664.125902 C493.431193,659.959676 496.03517,656.578391 499.260991,656.578391 Z M563.544229,656.578391 C566.770051,656.578391 569.374027,659.959676 569.374027,664.125902 L569.374027,788.030879 C569.374027,792.197106 566.770051,795.578391 563.544229,795.578391 C560.318408,795.578391 557.714432,792.197106 557.714432,788.030879 L557.714432,664.125902 C557.714432,659.959676 560.318408,656.578391 563.544229,656.578391 Z M484.453305,431.582232 C481.227483,431.582232 478.623507,428.512234 478.623507,424.729557 C478.623507,420.946881 481.227483,417.876882 484.453305,417.876882 L499.260991,417.876882 C502.486813,417.876882 505.090789,420.946881 505.090789,424.729557 C505.090789,428.512234 502.486813,431.582232 499.260991,431.582232 L484.453305,431.582232 Z M447.881039,431.582232 C444.655218,431.582232 442.051241,428.512234 442.051241,424.729557 C442.051241,420.946881 444.655218,417.876882 447.881039,417.876882 L462.727591,417.876882 C465.914547,417.876882 468.557389,420.946881 468.557389,424.729557 C468.557389,428.512234 465.914547,431.582232 462.727591,431.582232 L447.881039,431.582232 Z M411.347639,431.582232 C408.121817,431.582232 405.517841,428.512234 405.517841,424.729557 C405.517841,420.946881 408.121817,417.876882 411.347639,417.876882 L426.155326,417.876882 C429.381147,417.876882 431.985123,420.946881 431.985123,424.729557 C431.985123,428.512234 429.381147,431.582232 426.155326,431.582232 L411.347639,431.582232 Z M152.388016,307.663028 C149.162195,307.663028 146.558218,304.59303 146.558218,300.810353 L146.558218,275.112822 C146.558218,271.330146 149.162195,268.260148 152.388016,268.260148 C155.613838,268.260148 158.217814,271.330146 158.217814,275.112822 L158.217814,300.810353 C158.217814,304.59303 155.613838,307.663028 152.388016,307.663028 Z M635.794858,275.112822 C635.794858,271.330146 638.398835,268.260148 641.624656,268.260148 C644.811612,268.260148 647.454454,271.330146 647.454454,275.112822 L647.454454,300.810353 C647.454454,304.59303 644.811612,307.663028 641.624656,307.663028 C638.398835,307.663028 635.794858,304.59303 635.794858,300.810353 L635.794858,275.112822 Z" id="Combined-Shape" fill="#1E222B" mask="url(#mask-2)"></path>
                                <path d="M705.345455,834.267516 L583.594303,834.267516 L583.594303,806.642251 C583.594303,802.852085 580.991455,799.776008 577.76703,799.776008 L548.164485,799.776008 C544.940061,799.776008 542.337212,802.852085 542.337212,806.642251 L542.337212,834.267516 L519.338909,834.267516 L519.338909,806.642251 C519.338909,802.852085 516.736061,799.776008 513.511636,799.776008 L483.909091,799.776008 C480.684667,799.776008 478.081818,802.852085 478.081818,806.642251 L478.081818,834.267516 L455.083515,834.267516 L455.083515,806.642251 C455.083515,802.852085 452.480667,799.776008 449.256242,799.776008 L419.653697,799.776008 C416.429273,799.776008 413.826424,802.852085 413.826424,806.642251 L413.826424,834.267516 L379.173576,834.267516 L379.173576,806.642251 C379.173576,802.852085 376.570727,799.776008 373.346303,799.776008 L343.704909,799.776008 C340.480485,799.776008 337.877636,802.852085 337.877636,806.642251 L337.877636,834.267516 L314.918182,834.267516 L314.918182,806.642251 C314.918182,802.852085 312.315333,799.776008 309.090909,799.776008 L279.449515,799.776008 C276.225091,799.776008 273.622242,802.852085 273.622242,806.642251 L273.622242,834.267516 L250.662788,834.267516 L250.662788,806.642251 C250.662788,802.852085 248.059939,799.776008 244.835515,799.776008 L215.194121,799.776008 C211.969697,799.776008 209.366848,802.852085 209.366848,806.642251 L209.366848,834.267516 L87.6545455,834.267516 L87.6545455,532.725053 L195.420242,532.725053 L162.088242,573.753138 C160.495455,575.744348 160.029273,578.669367 160.961636,581.200722 C161.855152,583.727499 163.991818,585.366242 166.322727,585.366242 L209.366848,585.366242 L209.366848,625.991507 C209.366848,629.781673 211.969697,632.857749 215.194121,632.857749 L244.835515,632.857749 C248.059939,632.857749 250.662788,629.781673 250.662788,625.991507 L250.662788,585.366242 L273.622242,585.366242 L273.622242,625.991507 C273.622242,629.781673 276.225091,632.857749 279.449515,632.857749 L309.090909,632.857749 C312.315333,632.857749 314.918182,629.781673 314.918182,625.991507 L314.918182,585.366242 L337.877636,585.366242 L337.877636,625.991507 C337.877636,629.781673 340.480485,632.857749 343.704909,632.857749 L373.346303,632.857749 C376.570727,632.857749 379.173576,629.781673 379.173576,625.991507 L379.173576,585.366242 L413.826424,585.366242 L413.826424,625.991507 C413.826424,629.781673 416.429273,632.857749 419.653697,632.857749 L449.256242,632.857749 C452.480667,632.857749 455.083515,629.781673 455.083515,625.991507 L455.083515,585.366242 L478.081818,585.366242 L478.081818,625.991507 C478.081818,629.781673 480.684667,632.857749 483.909091,632.857749 L513.511636,632.857749 C516.736061,632.857749 519.338909,629.781673 519.338909,625.991507 L519.338909,585.366242 L542.337212,585.366242 L542.337212,625.991507 C542.337212,629.781673 544.940061,632.857749 548.164485,632.857749 L577.76703,632.857749 C580.991455,632.857749 583.594303,629.781673 583.594303,625.991507 L583.594303,585.366242 L626.677273,585.366242 C629.008182,585.366242 631.106,583.727499 632.038364,581.200722 C632.931879,578.669367 632.504545,575.744348 630.872909,573.753138 L597.579758,532.725053 L705.345455,532.725053 L705.345455,834.267516 Z M553.991758,834.267516 L571.939758,834.267516 L571.939758,810.508493 L553.991758,810.508493 L553.991758,834.267516 Z M489.736364,834.267516 L507.684364,834.267516 L507.684364,810.508493 L489.736364,810.508493 L489.736364,834.267516 Z M425.48097,834.267516 L443.42897,834.267516 L443.42897,810.508493 L425.48097,810.508493 L425.48097,834.267516 Z M349.532182,834.267516 L367.51903,834.267516 L367.51903,810.508493 L349.532182,810.508493 L349.532182,834.267516 Z M285.276788,834.267516 L303.263636,834.267516 L303.263636,810.508493 L285.276788,810.508493 L285.276788,834.267516 Z M221.021394,834.267516 L239.008242,834.267516 L239.008242,810.508493 L221.021394,810.508493 L221.021394,834.267516 Z M127.823879,385.608951 C131.475636,381.283219 135.632424,376.376144 140.294242,370.228569 C143.946,365.449665 148.56897,358.436943 151.987636,353.117894 C155.406303,358.436943 160.029273,365.449665 163.68103,370.228569 C168.342848,376.376144 172.499636,381.283219 176.151394,385.608951 C185.552727,396.713953 189.398727,401.520323 189.398727,409.132696 C189.398727,417.829936 185.086545,425.75358 182.716788,429.447618 L166.128485,429.447618 C168.381697,423.895117 170.440667,416.809155 170.440667,409.421079 C170.440667,393.152662 157.426424,378.522989 155.950182,376.907134 C155.717091,376.646217 155.406303,376.540934 155.134364,376.339524 C154.823576,376.083185 154.512788,375.803958 154.163152,375.63459 C153.813515,375.4698 153.463879,375.419448 153.075394,375.332476 C152.725758,375.250081 152.376121,375.135643 151.987636,375.135643 C151.599152,375.135643 151.249515,375.254658 150.899879,375.332476 C150.511394,375.419448 150.161758,375.4698 149.812121,375.63459 C149.462485,375.803958 149.151697,376.083185 148.840909,376.339524 C148.56897,376.540934 148.258182,376.646217 148.025091,376.907134 C146.548848,378.522989 133.534606,393.152662 133.534606,409.421079 C133.534606,416.809155 135.593576,423.895117 137.846788,429.447618 L121.258485,429.447618 C118.888727,425.758157 114.615394,417.839091 114.615394,409.132696 C114.615394,401.520323 118.422545,396.713953 127.823879,385.608951 Z M151.987636,322.732484 C154.784727,322.732484 157.076788,325.428628 157.076788,328.742735 C157.076788,332.052263 154.784727,334.748408 151.987636,334.748408 C149.190545,334.748408 146.898485,332.052263 146.898485,328.742735 C146.898485,325.428628 149.190545,322.732484 151.987636,322.732484 Z M224.595455,455.9742 C227.78103,455.9742 230.422727,459.050276 230.422727,462.840442 C230.422727,466.62603 227.78103,469.706684 224.595455,469.706684 C221.37103,469.706684 218.768182,466.62603 218.768182,462.840442 C218.768182,459.050276 221.37103,455.9742 224.595455,455.9742 Z M214.883333,518.992569 L234.307576,518.992569 L234.307576,485.805732 L214.883333,485.805732 L214.883333,518.992569 Z M266.007939,477.795117 L353.999758,477.795117 C352.950848,481.887397 352.834303,485.81031 352.795455,488.300467 C352.640061,494.83713 352.678909,510.034412 352.756606,518.992569 L343.083333,518.992569 L343.083333,493.051907 C343.083333,489.261741 340.480485,486.185665 337.256061,486.185665 C334.031636,486.185665 331.428788,489.261741 331.428788,493.051907 L331.428788,518.992569 L323.814485,518.992569 L323.814485,493.051907 C323.814485,489.261741 321.211636,486.185665 317.987212,486.185665 C314.762788,486.185665 312.159939,489.261741 312.159939,493.051907 L312.159939,518.992569 L304.545636,518.992569 L304.545636,493.051907 C304.545636,489.261741 301.942788,486.185665 298.718364,486.185665 C295.493939,486.185665 292.891091,489.261741 292.891091,493.051907 L292.891091,518.992569 L285.276788,518.992569 L285.276788,493.051907 C285.276788,489.261741 282.673939,486.185665 279.449515,486.185665 C276.225091,486.185665 273.622242,489.261741 273.622242,493.051907 L273.622242,518.992569 L266.007939,518.992569 L266.007939,477.795117 Z M271.835212,446.384348 L278.827939,438.48817 C279.954545,437.197316 280.576121,435.407516 280.576121,433.544476 L280.576121,415.619006 C280.576121,413.801741 279.993394,412.053138 278.866788,410.766862 L271.835212,402.477019 L271.835212,395.830497 L521.125939,395.830497 L521.125939,402.477019 L514.094364,410.766862 C513.006606,412.053138 512.38503,413.801741 512.38503,415.619006 L512.38503,433.544476 C512.38503,435.407516 513.045455,437.197316 514.172061,438.48817 L521.125939,446.384348 L521.125939,464.062633 L428.433455,464.062633 C425.636364,462.767202 422.489636,462.03938 418.79903,462.03938 L418.760182,462.03938 C417.361636,450.407966 412.699818,443.198412 409.747333,439.660008 C405.668242,434.803287 400.812182,432.02017 396.5,432.02017 C392.14897,432.02017 387.331758,434.803287 383.252667,439.660008 C380.261333,443.198412 375.599515,450.407966 374.239818,462.03938 C370.588061,462.043958 367.363636,462.767202 364.605394,464.062633 L271.835212,464.062633 L271.835212,446.384348 Z M519.338909,518.992569 L519.338909,493.051907 C519.338909,489.261741 516.736061,486.185665 513.511636,486.185665 C510.287212,486.185665 507.684364,489.261741 507.684364,493.051907 L507.684364,518.992569 L500.070061,518.992569 L500.070061,493.051907 C500.070061,489.261741 497.467212,486.185665 494.242788,486.185665 C491.057212,486.185665 488.415515,489.261741 488.415515,493.051907 L488.415515,518.992569 L480.840061,518.992569 L480.840061,493.051907 C480.840061,489.261741 478.237212,486.185665 475.012788,486.185665 C471.788364,486.185665 469.185515,489.261741 469.185515,493.051907 L469.185515,518.992569 L461.571212,518.992569 L461.571212,493.051907 C461.571212,489.261741 458.968364,486.185665 455.743939,486.185665 C452.519515,486.185665 449.916667,489.261741 449.916667,493.051907 L449.916667,518.992569 L440.243394,518.992569 C440.282242,510.034412 440.321091,494.83713 440.204545,488.29589 C440.126848,485.805732 440.010303,481.887397 439.000242,477.795117 L526.953212,477.795117 L526.953212,518.992569 L519.338909,518.992569 Z M558.692424,518.992569 L578.116667,518.992569 L578.116667,485.805732 L558.692424,485.805732 L558.692424,518.992569 Z M568.404545,455.9742 C571.590121,455.9742 574.231818,459.050276 574.231818,462.840442 C574.231818,466.62603 571.590121,469.706684 568.404545,469.706684 C565.180121,469.706684 562.577273,466.62603 562.577273,462.840442 C562.577273,459.050276 565.180121,455.9742 568.404545,455.9742 Z M616.809758,385.608951 C620.461515,381.283219 624.618303,376.376144 629.31897,370.228569 C632.931879,365.449665 637.593697,358.436943 641.012364,353.117894 C644.392182,358.436943 649.054,365.449665 652.666909,370.228569 C657.367576,376.376144 661.524364,381.283219 665.176121,385.608951 C674.577455,396.713953 678.384606,401.520323 678.384606,409.132696 C678.384606,417.829936 674.072424,425.75358 671.741515,429.447618 L655.114364,429.447618 C657.367576,423.895117 659.465394,416.809155 659.465394,409.421079 C659.465394,393.152662 646.412303,378.522989 644.936061,376.907134 C644.70297,376.650794 644.43103,376.545512 644.159091,376.344102 C643.809455,376.087762 643.537515,375.803958 643.14903,375.63459 C642.799394,375.4698 642.449758,375.419448 642.100121,375.337053 C641.711636,375.254658 641.362,375.135643 641.012364,375.135643 C640.623879,375.135643 640.274242,375.254658 639.885758,375.337053 C639.536121,375.419448 639.186485,375.4698 638.836848,375.63459 C638.487212,375.803958 638.176424,376.083185 637.826788,376.339524 C637.554848,376.540934 637.282909,376.646217 637.049818,376.907134 C635.573576,378.522989 622.559333,393.152662 622.559333,409.421079 C622.559333,416.809155 624.618303,423.895117 626.871515,429.447618 L610.244364,429.447618 C607.913455,425.758157 603.601273,417.839091 603.601273,409.132696 C603.601273,401.520323 607.408424,396.713953 616.809758,385.608951 Z M641.012364,322.732484 C643.809455,322.732484 646.101515,325.428628 646.101515,328.742735 C646.101515,332.052263 643.809455,334.748408 641.012364,334.748408 C638.176424,334.748408 635.884364,332.052263 635.884364,328.742735 C635.884364,325.428628 638.176424,322.732484 641.012364,322.732484 Z M589.771212,514.987261 L695.400242,514.987261 L698.352727,518.992569 L589.771212,518.992569 L589.771212,514.987261 Z M637.127515,443.180102 L672.013455,443.180102 L675.548667,447.469214 L606.437212,447.469214 L609.972424,443.180102 L637.127515,443.180102 Z M640.973515,392.131881 C644.197939,396.837546 647.810848,403.525265 647.810848,409.421079 C647.810848,417.353877 644.003697,425.419423 641.828182,429.447618 L640.157697,429.447618 C637.982182,425.410268 634.213879,417.312679 634.213879,409.421079 C634.213879,403.502378 637.749091,396.851278 640.973515,392.131881 Z M604.145152,461.201699 L677.840727,461.201699 L692.214667,481.434225 L692.214667,501.254777 L589.771212,501.254777 L589.771212,481.434225 L604.145152,461.201699 Z M364.45,488.652934 C364.527697,484.643049 364.799636,480.179992 367.091697,477.918709 C369.189515,475.840527 373.229758,475.25003 378.823939,476.197571 C380.494424,476.504263 382.203758,475.895456 383.485758,474.577138 C384.767758,473.25882 385.505879,471.350004 385.46703,469.345062 C385.389333,458.262947 389.235333,452.046709 391.527394,449.327677 C394.013697,446.361461 396.072667,445.752654 396.5,445.752654 C396.888485,445.752654 398.947455,446.361461 401.472606,449.327677 C403.764667,452.046709 407.571818,458.262947 407.494121,469.345062 C407.494121,471.350004 408.193394,473.25882 409.475394,474.577138 C410.757394,475.895456 412.466727,476.499686 414.176061,476.197571 C419.731394,475.25003 423.810485,475.840527 425.908303,477.918709 C428.161515,480.179992 428.472303,484.643049 428.55,488.648357 C428.666545,494.942412 428.627697,510.107652 428.588848,518.992569 L364.411152,518.992569 C364.372303,510.107652 364.294606,494.942412 364.45,488.652934 Z M97.5609091,514.987261 L203.228788,514.987261 L203.228788,518.992569 L94.6084242,518.992569 L97.5609091,514.987261 Z M149.307091,461.201699 L188.854848,461.201699 L203.228788,481.434225 L203.228788,501.254777 L100.746485,501.254777 L100.746485,481.434225 L115.120424,461.201699 L149.307091,461.201699 Z M148.102788,443.180102 L183.027576,443.180102 L186.562788,447.469214 L117.412485,447.469214 L120.947697,443.180102 L148.102788,443.180102 Z M151.987636,392.131881 C155.173212,396.837546 158.786121,403.525265 158.786121,409.421079 C158.786121,417.353877 155.017818,425.419423 152.803455,429.447618 L151.171818,429.447618 C148.957455,425.410268 145.189152,417.312679 145.189152,409.421079 C145.189152,403.502378 148.763212,396.851278 151.987636,392.131881 Z M221.021394,619.125265 L239.008242,619.125265 L239.008242,585.366242 L221.021394,585.366242 L221.021394,619.125265 Z M285.276788,619.125265 L303.263636,619.125265 L303.263636,585.366242 L285.276788,585.366242 L285.276788,619.125265 Z M349.532182,619.125265 L367.51903,619.125265 L367.51903,585.366242 L349.532182,585.366242 L349.532182,619.125265 Z M425.48097,619.125265 L443.42897,619.125265 L443.42897,585.366242 L425.48097,585.366242 L425.48097,619.125265 Z M489.736364,619.125265 L507.684364,619.125265 L507.684364,585.366242 L489.736364,585.366242 L489.736364,619.125265 Z M577.76703,571.633758 L179.958545,571.633758 L211.542364,532.725053 L581.457636,532.725053 L613.041455,571.633758 L577.76703,571.633758 Z M553.991758,619.125265 L571.939758,619.125265 L571.939758,585.366242 L553.991758,585.366242 L553.991758,619.125265 Z M716.766909,524.114786 C716.728061,523.890488 716.689212,523.670769 716.611515,523.451049 C716.533818,523.245062 716.456121,523.043652 716.378424,522.84682 C716.300727,522.649987 716.22303,522.453155 716.106485,522.2609 C715.989939,522.05949 715.873394,521.871813 715.756848,521.684136 C715.679152,521.574276 715.640303,521.455261 715.562606,521.349979 L703.869212,505.548467 L703.869212,478.93949 C703.869212,477.328212 703.40303,475.767287 702.509515,474.531363 L692.331212,460.17634 C693.341273,459.443941 694.195939,458.372807 694.662121,457.013291 C695.594485,454.472781 695.128303,451.543185 693.496667,449.56113 L682.191758,435.805758 C685.532727,430.143397 690.039152,420.379601 690.039152,409.132696 C690.039152,395.542115 683.085273,387.311779 673.412,375.90924 C669.876788,371.702522 665.836545,366.93735 661.36897,361.064425 C658.028,356.715805 653.715818,350.12879 650.413697,345.038616 C654.842424,341.481902 657.756061,335.503694 657.756061,328.742735 C657.756061,317.857452 650.219455,309 641.012364,309 C631.766424,309 624.229818,317.857452 624.229818,328.742735 C624.229818,335.503694 627.143455,341.481902 631.572182,345.038616 C628.270061,350.12879 623.957879,356.711227 620.616909,361.064425 C616.149333,366.93735 612.109091,371.702522 608.573879,375.90924 C598.900606,387.311779 591.946727,395.542115 591.946727,409.132696 C591.946727,420.379601 596.453152,430.143397 599.794121,435.805758 L588.489212,449.56113 C586.857576,451.543185 586.391394,454.472781 587.323758,457.013291 C587.789939,458.372807 588.644606,459.443941 589.654667,460.17634 L585.614424,465.879898 C585.73097,464.877427 585.886364,463.879533 585.886364,462.840442 C585.886364,451.4791 578.03897,442.241715 568.404545,442.241715 C558.770121,442.241715 550.922727,451.4791 550.922727,462.840442 C550.922727,466.172858 551.660848,469.285554 552.865152,472.073248 C549.640727,472.073248 547.037879,475.149325 547.037879,478.93949 L547.037879,518.992569 L538.607758,518.992569 L538.607758,470.928875 C538.607758,467.138709 536.004909,464.062633 532.780485,464.062633 L532.780485,443.463907 C532.780485,441.600866 532.120061,439.811066 530.993455,438.520212 L524.039576,430.624034 L524.039576,418.461631 L531.071152,410.176365 C532.158909,408.885512 532.780485,407.141486 532.780485,405.319643 L532.780485,388.964255 C532.780485,385.174089 530.177636,382.098013 526.953212,382.098013 L266.007939,382.098013 C262.822364,382.098013 260.180667,385.174089 260.180667,388.964255 L260.180667,405.319643 C260.180667,407.141486 260.802242,408.885512 261.89,410.176365 L268.921576,418.461631 L268.921576,430.624034 L261.967697,438.520212 C260.841091,439.811066 260.180667,441.600866 260.180667,443.463907 L260.180667,464.062633 C256.995091,464.062633 254.353394,467.138709 254.353394,470.928875 L254.353394,518.992569 L245.962121,518.992569 L245.962121,478.93949 C245.962121,475.149325 243.359273,472.073248 240.134848,472.073248 C241.339152,469.285554 242.077273,466.172858 242.077273,462.840442 C242.077273,451.4791 234.229879,442.241715 224.595455,442.241715 C214.96103,442.241715 207.113636,451.4791 207.113636,462.840442 C207.113636,463.879533 207.230182,464.877427 207.346727,465.879898 L203.306485,460.17634 C204.355394,459.443941 205.171212,458.372807 205.676242,457.013291 C206.569758,454.472781 206.103576,451.543185 204.510788,449.56113 L193.205879,435.805758 C196.508,430.143397 201.053273,420.379601 201.053273,409.132696 C201.053273,395.542115 194.060545,387.311779 184.426121,375.90924 C180.852061,371.702522 176.811818,366.93735 172.344242,361.064425 C169.042121,356.715805 164.691091,350.12879 161.427818,345.038616 C165.817697,341.481902 168.731333,335.503694 168.731333,328.742735 C168.731333,317.857452 161.233576,309 151.987636,309 C142.741697,309 135.243939,317.857452 135.243939,328.742735 C135.243939,335.503694 138.157576,341.481902 142.547455,345.038616 C139.284182,350.12879 134.933152,356.711227 131.63103,361.064425 C127.163455,366.93735 123.123212,371.702522 119.549152,375.90924 C109.914727,387.311779 102.960848,395.542115 102.960848,409.132696 C102.960848,420.379601 107.467273,430.143397 110.769394,435.805758 L99.4644848,449.56113 C97.871697,451.543185 97.4055152,454.472781 98.2990303,457.013291 C98.8040606,458.372807 99.6198788,459.443941 100.668788,460.17634 L90.4516364,474.531363 C89.5969697,475.767287 89.0919394,477.328212 89.0919394,478.93949 L89.0919394,505.548467 L77.4373939,521.349979 C77.359697,521.455261 77.282,521.574276 77.204303,521.684136 C77.0877576,521.871813 76.9712121,522.05949 76.8546667,522.2609 C76.7769697,522.453155 76.6992727,522.649987 76.6215758,522.84682 C76.5050303,523.043652 76.4661818,523.245062 76.3884848,523.451049 C76.3107879,523.670769 76.2719394,523.890488 76.1942424,524.114786 C76.1553939,524.320773 76.1165455,524.522183 76.077697,524.737325 C76.0388485,524.98451 76.0388485,525.222539 76.0388485,525.474301 C76,525.602471 76,525.726064 76,525.858811 L76,841.133758 C76,844.923924 78.6028485,848 81.8272727,848 L711.172727,848 C714.397152,848 717,844.923924 717,841.133758 L717,525.858811 C717,525.726064 716.961152,525.602471 716.961152,525.474301 C716.961152,525.222539 716.922303,524.98451 716.883455,524.737325 C716.844606,524.522183 716.844606,524.320773 716.766909,524.114786 Z" id="Fill-453" fill="#1E222B" mask="url(#mask-2)"></path>
                                <path d="M616.809758,385.608951 C620.461515,381.283219 624.618303,376.376144 629.31897,370.228569 C632.931879,365.449665 637.593697,358.436943 641.012364,353.117894 C644.392182,358.436943 649.054,365.449665 652.666909,370.228569 C657.367576,376.376144 661.524364,381.283219 665.176121,385.608951 C674.577455,396.713953 678.384606,401.520323 678.384606,409.132696 C678.384606,417.829936 674.072424,425.75358 671.741515,429.447618 L655.114364,429.447618 C657.367576,423.895117 659.465394,416.809155 659.465394,409.421079 C659.465394,393.152662 646.412303,378.522989 644.936061,376.907134 C644.70297,376.650794 644.43103,376.545512 644.159091,376.344102 C643.809455,376.087762 643.537515,375.803958 643.14903,375.63459 C642.799394,375.4698 642.449758,375.419448 642.100121,375.337053 C641.711636,375.254658 641.362,375.135643 641.012364,375.135643 C640.623879,375.135643 640.274242,375.254658 639.885758,375.337053 C639.536121,375.419448 639.186485,375.4698 638.836848,375.63459 C638.487212,375.803958 638.176424,376.083185 637.826788,376.339524 C637.554848,376.540934 637.282909,376.646217 637.049818,376.907134 C635.573576,378.522989 622.559333,393.152662 622.559333,409.421079 C622.559333,416.809155 624.618303,423.895117 626.871515,429.447618 L610.244364,429.447618 C607.913455,425.758157 603.601273,417.839091 603.601273,409.132696 C603.601273,401.520323 607.408424,396.713953 616.809758,385.608951 Z" id="Path" fill="#FFFFFF" mask="url(#mask-2)"></path>
                                <path d="M127.823879,385.608951 C131.475636,381.283219 135.632424,376.376144 140.294242,370.228569 C143.946,365.449665 148.56897,358.436943 151.987636,353.117894 C155.406303,358.436943 160.029273,365.449665 163.68103,370.228569 C168.342848,376.376144 172.499636,381.283219 176.151394,385.608951 C185.552727,396.713953 189.398727,401.520323 189.398727,409.132696 C189.398727,417.829936 185.086545,425.75358 182.716788,429.447618 L166.128485,429.447618 C168.381697,423.895117 170.440667,416.809155 170.440667,409.421079 C170.440667,393.152662 157.426424,378.522989 155.950182,376.907134 C155.717091,376.646217 155.406303,376.540934 155.134364,376.339524 C154.823576,376.083185 154.512788,375.803958 154.163152,375.63459 C153.813515,375.4698 153.463879,375.419448 153.075394,375.332476 C152.725758,375.250081 152.376121,375.135643 151.987636,375.135643 C151.599152,375.135643 151.249515,375.254658 150.899879,375.332476 C150.511394,375.419448 150.161758,375.4698 149.812121,375.63459 C149.462485,375.803958 149.151697,376.083185 148.840909,376.339524 C148.56897,376.540934 148.258182,376.646217 148.025091,376.907134 C146.548848,378.522989 133.534606,393.152662 133.534606,409.421079 C133.534606,416.809155 135.593576,423.895117 137.846788,429.447618 L121.258485,429.447618 C118.888727,425.758157 114.615394,417.839091 114.615394,409.132696 C114.615394,401.520323 118.422545,396.713953 127.823879,385.608951 Z" id="Path" fill="#FFFFFF" mask="url(#mask-2)"></path>
                                <polygon id="Path" fill="#FFFFFF" mask="url(#mask-2)" points="577.76703 571.633758 179.958545 571.633758 211.542364 532.725053 581.457636 532.725053 613.041455 571.633758"></polygon>
                                <path d="M368.673518,72.5751637 C369.023306,70.8528581 370.927707,70.181296 372.054801,69.9345997 C375.164027,69.2401953 379.516942,70.3000756 382.27638,73.0548509 C380.993824,80.8075105 380.061057,90.7393206 379.827865,103.375653 C372.870973,94.3438276 366.535926,83.5988334 368.673518,72.5751637 Z M421.957871,69.9345997 C423.084965,70.181296 424.989366,70.8528581 425.339154,72.5751637 C427.437881,83.5988334 421.141699,94.3438276 414.184807,103.375653 C413.91275,90.7393206 413.018848,80.8075105 411.736292,73.0548509 C414.49573,70.3046441 418.80978,69.2447637 421.957871,69.9345997 Z M391.681787,124.353975 C390.360366,86.73279 394.169168,69.9026205 397.006336,62.7575648 C399.804639,69.9026205 403.61344,86.73279 402.330885,124.353975 L391.681787,124.353975 Z M424.600713,131.20665 C424.600713,127.423973 421.957871,124.353975 418.770915,124.353975 L413.990481,124.353975 C413.990481,123.983931 413.990481,123.636728 414.029346,123.271252 C414.57346,122.595122 415.117575,121.969244 415.700555,121.247429 C425.766672,109.401439 440.924147,91.4976833 436.687827,69.541713 C435.405272,62.8078178 430.702568,57.9241448 424.095464,56.4668093 C419.353895,55.4114974 413.446366,56.2429552 408.393875,59.276406 C405.012592,49.2669322 401.009464,46.279166 399.027333,45.4111605 C398.910737,45.365476 398.833006,45.3517706 398.71641,45.3106546 C398.522083,45.2421278 398.327757,45.1781695 398.13343,45.1279166 C397.939104,45.0868005 397.744777,45.0593898 397.55045,45.0365476 C397.356124,45.0137053 397.200663,45 397.006336,45 C396.812009,45 396.617683,45.0137053 396.423356,45.041116 C396.22903,45.0593898 396.073568,45.0868005 395.879242,45.1233481 C395.684915,45.1736011 395.490589,45.2421278 395.257397,45.315223 C395.179666,45.3517706 395.06307,45.365476 394.946474,45.4111605 C392.964343,46.279166 389.00008,49.2623638 385.579932,59.2718375 C380.527441,56.2383868 374.619912,55.4069289 369.878343,56.4668093 C363.310104,57.9241448 358.6074,62.8078178 357.324845,69.541713 C353.04966,91.4976833 368.246,109.401439 378.273252,121.247429 C378.895097,121.969244 379.400346,122.595122 379.983326,123.271252 C379.983326,123.636728 379.983326,123.983931 380.022191,124.353975 L375.241757,124.353975 C372.015936,124.353975 369.411959,127.423973 369.411959,131.20665 L368.828979,145.483056 L424.600713,145.483056 L424.600713,131.20665 Z" id="Fill-449" fill="#FFFFFF" mask="url(#mask-2)"></path>
                            </g>
                        </g>
                    </g>
                </g>
                <g id="noun_Flag_3065327" transform="translate(520.000000, 322.000000)" fill-rule="nonzero">
                    <g id="Group">
                        <g id="Path">
                            <use fill="black" fill-opacity="1" filter="url(#filter-4)" xlink:href="#path-3"></use>
                            <use fill="#FFFFFF" xlink:href="#path-3"></use>
                        </g>
                        <path d="M96.0446606,16.2039157 C78.0353827,16.2039157 54.0241626,0 36.0148847,0 C18.0056068,0 6,8.10238734 6,8.10238734 L6,35.1245465 C6,35.1245465 18.00561,27.0221608 36.0148847,27.0221608 C54.0241593,27.0221608 78.0353827,43.2260731 96.0446606,43.2260731 C114.053939,43.2260731 126.059545,35.1245465 126.059545,35.1245465 L126.059545,8.10238734 C126.059545,8.10238734 114.053939,16.2039157 96.0446606,16.2039157 Z" id="Path" fill="#FF9933"></path>
                        <path d="M96.0446606,70.2039157 C78.0353827,70.2039157 54.0241626,54 36.0148847,54 C18.0056068,54 6,62.1023873 6,62.1023873 L6,89.1245465 C6,89.1245465 18.00561,81.0221608 36.0148847,81.0221608 C54.0241593,81.0221608 78.0353827,97.2260731 96.0446606,97.2260731 C114.053939,97.2260731 126.059545,89.1245465 126.059545,89.1245465 L126.059545,62.1023873 C126.059545,62.1023873 114.053939,70.2039157 96.0446606,70.2039157 Z" id="Path" fill="#128807"></path>
                        <path d="M5.2046454,3.80732369 C2.42620671,3.80732369 0.173483398,5.38462766 0.173483398,7.3300261 L0.173483398,169.374344 C0.173483398,171.319747 2.42620671,172.897044 5.2046454,172.897044 C7.98308409,172.897044 10.2358074,171.319747 10.2358074,169.374344 L10.2358074,7.33002628 C10.2358074,5.38462784 7.98308409,3.80732369 5.2046454,3.80732369 Z" id="Path" fill="#1E222B"></path>
                        <g transform="translate(51.000000, 29.000000)">
                            <circle id="Oval" fill="#000088" cx="17.3690987" cy="20.9570815" r="9.78540773"></circle>
                            <circle id="Oval" fill="#FFFFFF" cx="17.3690987" cy="20.9570815" r="8.56223176"></circle>
                            <circle id="Oval" fill="#000088" cx="17.3690987" cy="20.9570815" r="1.71244635"></circle>
                            <g id="d" transform="translate(1.712446, 13.862661)" fill="#000088">
                                <g id="c" transform="translate(8.072961, 6.115880)">
                                    <g id="b" transform="translate(4.974249, 1.386266)">
                                        <g id="a" transform="translate(2.283262, 0.163090)">
                                            <circle id="Oval" transform="translate(8.815161, 0.546780) rotate(7.500000) translate(-8.815161, -0.546780) " cx="8.81516094" cy="0.546780058" r="1"></circle>
                                            <path d="M0.326180258,7.99141631 L0.619742489,2.85407725 C0.619742489,2.85407725 0.326180258,0.407725322 0.326180258,0.407725322 C0.326180258,0.407725322 0.0326180258,2.85407725 0.0326180258,2.85407725 L0.326180258,7.99141631 Z" id="Path"></path>
                                        </g>
                                        <g id="a-link" transform="translate(5.600428, 5.122806) rotate(15.000000) translate(-5.600428, -5.122806) translate(0.952360, 1.127098)">
                                            <g id="a" transform="translate(0.001411, -0.001436)">
                                                <circle id="Oval" transform="translate(8.815161, 0.546780) rotate(7.500000) translate(-8.815161, -0.546780) " cx="8.81516094" cy="0.546780058" r="1"></circle>
                                                <path d="M0.326180258,7.99141631 L0.619742489,2.85407725 C0.619742489,2.85407725 0.326180258,0.407725322 0.326180258,0.407725322 C0.326180258,0.407725322 0.0326180258,2.85407725 0.0326180258,2.85407725 L0.326180258,7.99141631 Z" id="Path"></path>
                                            </g>
                                        </g>
                                    </g>
                                    <g id="b-link" transform="translate(7.583871, 7.334475) rotate(30.000000) translate(-7.583871, -7.334475) translate(1.794171, 2.237908)">
                                        <g id="b" transform="translate(0.002135, -0.000019)">
                                            <g id="a" transform="translate(2.283262, 0.163090)">
                                                <circle id="Oval" transform="translate(8.815161, 0.546780) rotate(7.500000) translate(-8.815161, -0.546780) " cx="8.81516094" cy="0.546780058" r="1"></circle>
                                                <path d="M0.326180258,7.99141631 L0.619742489,2.85407725 C0.619742489,2.85407725 0.326180258,0.407725322 0.326180258,0.407725322 C0.326180258,0.407725322 0.0326180258,2.85407725 0.0326180258,2.85407725 L0.326180258,7.99141631 Z" id="Path"></path>
                                            </g>
                                            <g id="a-link" transform="translate(5.600428, 5.122806) rotate(15.000000) translate(-5.600428, -5.122806) translate(0.952360, 1.127098)">
                                                <g id="a" transform="translate(0.001411, -0.001436)">
                                                    <circle id="Oval" transform="translate(8.815161, 0.546780) rotate(7.500000) translate(-8.815161, -0.546780) " cx="8.81516094" cy="0.546780058" r="1"></circle>
                                                    <path d="M0.326180258,7.99141631 L0.619742489,2.85407725 C0.619742489,2.85407725 0.326180258,0.407725322 0.326180258,0.407725322 C0.326180258,0.407725322 0.0326180258,2.85407725 0.0326180258,2.85407725 L0.326180258,7.99141631 Z" id="Path"></path>
                                                </g>
                                            </g>
                                        </g>
                                    </g>
                                </g>
                                <g id="c-link" transform="translate(10.516749, 10.904413) rotate(60.000000) translate(-10.516749, -10.904413) translate(2.199153, 3.565357)">
                                    <g id="c" transform="translate(0.004307, 0.004232)">
                                        <g id="b" transform="translate(4.974249, 1.386266)">
                                            <g id="a" transform="translate(2.283262, 0.163090)">
                                                <circle id="Oval" transform="translate(8.815161, 0.546780) rotate(7.500000) translate(-8.815161, -0.546780) " cx="8.81516094" cy="0.546780058" r="1"></circle>
                                                <path d="M0.326180258,7.99141631 L0.619742489,2.85407725 C0.619742489,2.85407725 0.326180258,0.407725322 0.326180258,0.407725322 C0.326180258,0.407725322 0.0326180258,2.85407725 0.0326180258,2.85407725 L0.326180258,7.99141631 Z" id="Path"></path>
                                            </g>
                                            <g id="a-link" transform="translate(5.600428, 5.122806) rotate(15.000000) translate(-5.600428, -5.122806) translate(0.952360, 1.127098)">
                                                <g id="a" transform="translate(0.001411, -0.001436)">
                                                    <circle id="Oval" transform="translate(8.815161, 0.546780) rotate(7.500000) translate(-8.815161, -0.546780) " cx="8.81516094" cy="0.546780058" r="1"></circle>
                                                    <path d="M0.326180258,7.99141631 L0.619742489,2.85407725 C0.619742489,2.85407725 0.326180258,0.407725322 0.326180258,0.407725322 C0.326180258,0.407725322 0.0326180258,2.85407725 0.0326180258,2.85407725 L0.326180258,7.99141631 Z" id="Path"></path>
                                                </g>
                                            </g>
                                        </g>
                                        <g id="b-link" transform="translate(7.583871, 7.334475) rotate(30.000000) translate(-7.583871, -7.334475) translate(1.794171, 2.237908)">
                                            <g id="b" transform="translate(0.002135, -0.000019)">
                                                <g id="a" transform="translate(2.283262, 0.163090)">
                                                    <circle id="Oval" transform="translate(8.815161, 0.546780) rotate(7.500000) translate(-8.815161, -0.546780) " cx="8.81516094" cy="0.546780058" r="1"></circle>
                                                    <path d="M0.326180258,7.99141631 L0.619742489,2.85407725 C0.619742489,2.85407725 0.326180258,0.407725322 0.326180258,0.407725322 C0.326180258,0.407725322 0.0326180258,2.85407725 0.0326180258,2.85407725 L0.326180258,7.99141631 Z" id="Path"></path>
                                                </g>
                                                <g id="a-link" transform="translate(5.600428, 5.122806) rotate(15.000000) translate(-5.600428, -5.122806) translate(0.952360, 1.127098)">
                                                    <g id="a" transform="translate(0.001411, -0.001436)">
                                                        <circle id="Oval" transform="translate(8.815161, 0.546780) rotate(7.500000) translate(-8.815161, -0.546780) " cx="8.81516094" cy="0.546780058" r="1"></circle>
                                                        <path d="M0.326180258,7.99141631 L0.619742489,2.85407725 C0.619742489,2.85407725 0.326180258,0.407725322 0.326180258,0.407725322 C0.326180258,0.407725322 0.0326180258,2.85407725 0.0326180258,2.85407725 L0.326180258,7.99141631 Z" id="Path"></path>
                                                    </g>
                                                </g>
                                            </g>
                                        </g>
                                    </g>
                                </g>
                            </g>
                            <g id="d-link" transform="translate(15.709130, 16.188392) rotate(120.000000) translate(-15.709130, -16.188392) translate(3.355053, 5.261354)" fill="#000088">
                                <g id="d" transform="translate(-0.002753, 0.010699)">
                                    <g id="c" transform="translate(8.072961, 6.115880)">
                                        <g id="b" transform="translate(4.974249, 1.386266)">
                                            <g id="a" transform="translate(2.283262, 0.163090)">
                                                <circle id="Oval" transform="translate(8.815161, 0.546780) rotate(7.500000) translate(-8.815161, -0.546780) " cx="8.81516094" cy="0.546780058" r="1"></circle>
                                                <path d="M0.326180258,7.99141631 L0.619742489,2.85407725 C0.619742489,2.85407725 0.326180258,0.407725322 0.326180258,0.407725322 C0.326180258,0.407725322 0.0326180258,2.85407725 0.0326180258,2.85407725 L0.326180258,7.99141631 Z" id="Path"></path>
                                            </g>
                                            <g id="a-link" transform="translate(5.600428, 5.122806) rotate(15.000000) translate(-5.600428, -5.122806) translate(0.952360, 1.127098)">
                                                <g id="a" transform="translate(0.001411, -0.001436)">
                                                    <circle id="Oval" transform="translate(8.815161, 0.546780) rotate(7.500000) translate(-8.815161, -0.546780) " cx="8.81516094" cy="0.546780058" r="1"></circle>
                                                    <path d="M0.326180258,7.99141631 L0.619742489,2.85407725 C0.619742489,2.85407725 0.326180258,0.407725322 0.326180258,0.407725322 C0.326180258,0.407725322 0.0326180258,2.85407725 0.0326180258,2.85407725 L0.326180258,7.99141631 Z" id="Path"></path>
                                                </g>
                                            </g>
                                        </g>
                                        <g id="b-link" transform="translate(7.583871, 7.334475) rotate(30.000000) translate(-7.583871, -7.334475) translate(1.794171, 2.237908)">
                                            <g id="b" transform="translate(0.002135, -0.000019)">
                                                <g id="a" transform="translate(2.283262, 0.163090)">
                                                    <circle id="Oval" transform="translate(8.815161, 0.546780) rotate(7.500000) translate(-8.815161, -0.546780) " cx="8.81516094" cy="0.546780058" r="1"></circle>
                                                    <path d="M0.326180258,7.99141631 L0.619742489,2.85407725 C0.619742489,2.85407725 0.326180258,0.407725322 0.326180258,0.407725322 C0.326180258,0.407725322 0.0326180258,2.85407725 0.0326180258,2.85407725 L0.326180258,7.99141631 Z" id="Path"></path>
                                                </g>
                                                <g id="a-link" transform="translate(5.600428, 5.122806) rotate(15.000000) translate(-5.600428, -5.122806) translate(0.952360, 1.127098)">
                                                    <g id="a" transform="translate(0.001411, -0.001436)">
                                                        <circle id="Oval" transform="translate(8.815161, 0.546780) rotate(7.500000) translate(-8.815161, -0.546780) " cx="8.81516094" cy="0.546780058" r="1"></circle>
                                                        <path d="M0.326180258,7.99141631 L0.619742489,2.85407725 C0.619742489,2.85407725 0.326180258,0.407725322 0.326180258,0.407725322 C0.326180258,0.407725322 0.0326180258,2.85407725 0.0326180258,2.85407725 L0.326180258,7.99141631 Z" id="Path"></path>
                                                    </g>
                                                </g>
                                            </g>
                                        </g>
                                    </g>
                                    <g id="c-link" transform="translate(10.516749, 10.904413) rotate(60.000000) translate(-10.516749, -10.904413) translate(2.199153, 3.565357)">
                                        <g id="c" transform="translate(0.004307, 0.004232)">
                                            <g id="b" transform="translate(4.974249, 1.386266)">
                                                <g id="a" transform="translate(2.283262, 0.163090)">
                                                    <circle id="Oval" transform="translate(8.815161, 0.546780) rotate(7.500000) translate(-8.815161, -0.546780) " cx="8.81516094" cy="0.546780058" r="1"></circle>
                                                    <path d="M0.326180258,7.99141631 L0.619742489,2.85407725 C0.619742489,2.85407725 0.326180258,0.407725322 0.326180258,0.407725322 C0.326180258,0.407725322 0.0326180258,2.85407725 0.0326180258,2.85407725 L0.326180258,7.99141631 Z" id="Path"></path>
                                                </g>
                                                <g id="a-link" transform="translate(5.600428, 5.122806) rotate(15.000000) translate(-5.600428, -5.122806) translate(0.952360, 1.127098)">
                                                    <g id="a" transform="translate(0.001411, -0.001436)">
                                                        <circle id="Oval" transform="translate(8.815161, 0.546780) rotate(7.500000) translate(-8.815161, -0.546780) " cx="8.81516094" cy="0.546780058" r="1"></circle>
                                                        <path d="M0.326180258,7.99141631 L0.619742489,2.85407725 C0.619742489,2.85407725 0.326180258,0.407725322 0.326180258,0.407725322 C0.326180258,0.407725322 0.0326180258,2.85407725 0.0326180258,2.85407725 L0.326180258,7.99141631 Z" id="Path"></path>
                                                    </g>
                                                </g>
                                            </g>
                                            <g id="b-link" transform="translate(7.583871, 7.334475) rotate(30.000000) translate(-7.583871, -7.334475) translate(1.794171, 2.237908)">
                                                <g id="b" transform="translate(0.002135, -0.000019)">
                                                    <g id="a" transform="translate(2.283262, 0.163090)">
                                                        <circle id="Oval" transform="translate(8.815161, 0.546780) rotate(7.500000) translate(-8.815161, -0.546780) " cx="8.81516094" cy="0.546780058" r="1"></circle>
                                                        <path d="M0.326180258,7.99141631 L0.619742489,2.85407725 C0.619742489,2.85407725 0.326180258,0.407725322 0.326180258,0.407725322 C0.326180258,0.407725322 0.0326180258,2.85407725 0.0326180258,2.85407725 L0.326180258,7.99141631 Z" id="Path"></path>
                                                    </g>
                                                    <g id="a-link" transform="translate(5.600428, 5.122806) rotate(15.000000) translate(-5.600428, -5.122806) translate(0.952360, 1.127098)">
                                                        <g id="a" transform="translate(0.001411, -0.001436)">
                                                            <circle id="Oval" transform="translate(8.815161, 0.546780) rotate(7.500000) translate(-8.815161, -0.546780) " cx="8.81516094" cy="0.546780058" r="1"></circle>
                                                            <path d="M0.326180258,7.99141631 L0.619742489,2.85407725 C0.619742489,2.85407725 0.326180258,0.407725322 0.326180258,0.407725322 C0.326180258,0.407725322 0.0326180258,2.85407725 0.0326180258,2.85407725 L0.326180258,7.99141631 Z" id="Path"></path>
                                                        </g>
                                                    </g>
                                                </g>
                                            </g>
                                        </g>
                                    </g>
                                </g>
                            </g>
                            <g id="d-link" transform="translate(22.350223, 21.898108) rotate(-120.000000) translate(-22.350223, -21.898108) translate(9.996145, 10.971069)" fill="#000088">
                                <g id="d" transform="translate(0.002939, -0.010649)">
                                    <g id="c" transform="translate(8.072961, 6.115880)">
                                        <g id="b" transform="translate(4.974249, 1.386266)">
                                            <g id="a" transform="translate(2.283262, 0.163090)">
                                                <circle id="Oval" transform="translate(8.815161, 0.546780) rotate(7.500000) translate(-8.815161, -0.546780) " cx="8.81516094" cy="0.546780058" r="1"></circle>
                                                <path d="M0.326180258,7.99141631 L0.619742489,2.85407725 C0.619742489,2.85407725 0.326180258,0.407725322 0.326180258,0.407725322 C0.326180258,0.407725322 0.0326180258,2.85407725 0.0326180258,2.85407725 L0.326180258,7.99141631 Z" id="Path"></path>
                                            </g>
                                            <g id="a-link" transform="translate(5.600428, 5.122806) rotate(15.000000) translate(-5.600428, -5.122806) translate(0.952360, 1.127098)">
                                                <g id="a" transform="translate(0.001411, -0.001436)">
                                                    <circle id="Oval" transform="translate(8.815161, 0.546780) rotate(7.500000) translate(-8.815161, -0.546780) " cx="8.81516094" cy="0.546780058" r="1"></circle>
                                                    <path d="M0.326180258,7.99141631 L0.619742489,2.85407725 C0.619742489,2.85407725 0.326180258,0.407725322 0.326180258,0.407725322 C0.326180258,0.407725322 0.0326180258,2.85407725 0.0326180258,2.85407725 L0.326180258,7.99141631 Z" id="Path"></path>
                                                </g>
                                            </g>
                                        </g>
                                        <g id="b-link" transform="translate(7.583871, 7.334475) rotate(30.000000) translate(-7.583871, -7.334475) translate(1.794171, 2.237908)">
                                            <g id="b" transform="translate(0.002135, -0.000019)">
                                                <g id="a" transform="translate(2.283262, 0.163090)">
                                                    <circle id="Oval" transform="translate(8.815161, 0.546780) rotate(7.500000) translate(-8.815161, -0.546780) " cx="8.81516094" cy="0.546780058" r="1"></circle>
                                                    <path d="M0.326180258,7.99141631 L0.619742489,2.85407725 C0.619742489,2.85407725 0.326180258,0.407725322 0.326180258,0.407725322 C0.326180258,0.407725322 0.0326180258,2.85407725 0.0326180258,2.85407725 L0.326180258,7.99141631 Z" id="Path"></path>
                                                </g>
                                                <g id="a-link" transform="translate(5.600428, 5.122806) rotate(15.000000) translate(-5.600428, -5.122806) translate(0.952360, 1.127098)">
                                                    <g id="a" transform="translate(0.001411, -0.001436)">
                                                        <circle id="Oval" transform="translate(8.815161, 0.546780) rotate(7.500000) translate(-8.815161, -0.546780) " cx="8.81516094" cy="0.546780058" r="1"></circle>
                                                        <path d="M0.326180258,7.99141631 L0.619742489,2.85407725 C0.619742489,2.85407725 0.326180258,0.407725322 0.326180258,0.407725322 C0.326180258,0.407725322 0.0326180258,2.85407725 0.0326180258,2.85407725 L0.326180258,7.99141631 Z" id="Path"></path>
                                                    </g>
                                                </g>
                                            </g>
                                        </g>
                                    </g>
                                    <g id="c-link" transform="translate(10.516749, 10.904413) rotate(60.000000) translate(-10.516749, -10.904413) translate(2.199153, 3.565357)">
                                        <g id="c" transform="translate(0.004307, 0.004232)">
                                            <g id="b" transform="translate(4.974249, 1.386266)">
                                                <g id="a" transform="translate(2.283262, 0.163090)">
                                                    <circle id="Oval" transform="translate(8.815161, 0.546780) rotate(7.500000) translate(-8.815161, -0.546780) " cx="8.81516094" cy="0.546780058" r="1"></circle>
                                                    <path d="M0.326180258,7.99141631 L0.619742489,2.85407725 C0.619742489,2.85407725 0.326180258,0.407725322 0.326180258,0.407725322 C0.326180258,0.407725322 0.0326180258,2.85407725 0.0326180258,2.85407725 L0.326180258,7.99141631 Z" id="Path"></path>
                                                </g>
                                                <g id="a-link" transform="translate(5.600428, 5.122806) rotate(15.000000) translate(-5.600428, -5.122806) translate(0.952360, 1.127098)">
                                                    <g id="a" transform="translate(0.001411, -0.001436)">
                                                        <circle id="Oval" transform="translate(8.815161, 0.546780) rotate(7.500000) translate(-8.815161, -0.546780) " cx="8.81516094" cy="0.546780058" r="1"></circle>
                                                        <path d="M0.326180258,7.99141631 L0.619742489,2.85407725 C0.619742489,2.85407725 0.326180258,0.407725322 0.326180258,0.407725322 C0.326180258,0.407725322 0.0326180258,2.85407725 0.0326180258,2.85407725 L0.326180258,7.99141631 Z" id="Path"></path>
                                                    </g>
                                                </g>
                                            </g>
                                            <g id="b-link" transform="translate(7.583871, 7.334475) rotate(30.000000) translate(-7.583871, -7.334475) translate(1.794171, 2.237908)">
                                                <g id="b" transform="translate(0.002135, -0.000019)">
                                                    <g id="a" transform="translate(2.283262, 0.163090)">
                                                        <circle id="Oval" transform="translate(8.815161, 0.546780) rotate(7.500000) translate(-8.815161, -0.546780) " cx="8.81516094" cy="0.546780058" r="1"></circle>
                                                        <path d="M0.326180258,7.99141631 L0.619742489,2.85407725 C0.619742489,2.85407725 0.326180258,0.407725322 0.326180258,0.407725322 C0.326180258,0.407725322 0.0326180258,2.85407725 0.0326180258,2.85407725 L0.326180258,7.99141631 Z" id="Path"></path>
                                                    </g>
                                                    <g id="a-link" transform="translate(5.600428, 5.122806) rotate(15.000000) translate(-5.600428, -5.122806) translate(0.952360, 1.127098)">
                                                        <g id="a" transform="translate(0.001411, -0.001436)">
                                                            <circle id="Oval" transform="translate(8.815161, 0.546780) rotate(7.500000) translate(-8.815161, -0.546780) " cx="8.81516094" cy="0.546780058" r="1"></circle>
                                                            <path d="M0.326180258,7.99141631 L0.619742489,2.85407725 C0.619742489,2.85407725 0.326180258,0.407725322 0.326180258,0.407725322 C0.326180258,0.407725322 0.0326180258,2.85407725 0.0326180258,2.85407725 L0.326180258,7.99141631 Z" id="Path"></path>
                                                        </g>
                                                    </g>
                                                </g>
                                            </g>
                                        </g>
                                    </g>
                                </g>
                            </g>
                        </g>
                    </g>
                </g>
            </g>
        </g>
    </g>
</svg>